<?xml version="1.0" encoding="utf-8"?>
<!-- Generator: Adobe Illustrator 15.1.0, SVG Export Plug-In . SVG Version: 6.00 Build 0)  -->
<!DOCTYPE svg PUBLIC "-//W3C//DTD SVG 1.1//EN" "http://www.w3.org/Graphics/SVG/1.1/DTD/svg11.dtd">
<svg version="1.1" id="Layer_1" xmlns="http://www.w3.org/2000/svg" xmlns:xlink="http://www.w3.org/1999/xlink" x="0px" y="0px"
	 width="230px" height="200px" viewBox="0 0 230 200" enable-background="new 0 0 230 200" xml:space="preserve">
<g>
	<g>
		<g>
			<path opacity="0.2803" fill="#39B54A" d="M62.976,151.64c2.033-4.006,5.496-6.634,9.219-8.999
				c7.272-4.623,15.273-6.493,23.463-8.172c8.523-1.748,17.401-1.625,26.048-1.538c6.827,0.069,13.55,1.178,20.243,2.391
				c6.666,1.207,12.937,3.583,19.051,6.415c3.181,1.475,6.045,3.52,8.841,5.602c2.401,1.787,4.78,4.165,6.167,6.846
				c-0.187-0.525-0.373-1.053-0.561-1.579c0.164,0.544,0.327,1.088,0.492,1.632c-0.312-1.422-0.623-2.842-0.934-4.263
				c0.231,1.497,0.501,2.988,0.812,4.472c-0.036-0.144,0.332,1.197,0.454,0.483c0.917-5.378-1.962-7.607-5.224-10.343
				c-13.271-11.125-31.415-13.867-48.054-15.236c-5.105-0.271-10.212-0.253-15.315,0.053c-6.509,0.207-12.938,1.161-19.307,2.433
				c-5.035,1.006-9.814,2.827-14.563,4.72c-1.403,0.568-2.763,1.232-4.079,1.995c-2.895,1.431-5.764,3.133-8.53,4.801
				c-1.506,0.907-2.867,2.187-4.167,3.363c-0.284,0.257-0.997,0.88-1.124,1.33C55.706,148.762,62.827,151.934,62.976,151.64z"/>
			<path opacity="0.2803" fill="#39B54A" d="M64.288,154.276c1.185-3.43,3.889-5.604,6.714-7.717
				c2.552-1.907,5.642-3.188,8.498-4.541c11.135-5.271,23.906-6.152,36.08-6.592c11.765-0.427,22.108,1.198,33.168,3.874
				c4.673,1.131,9.054,3.089,13.386,5.112c3.166,1.479,6.007,3.522,8.786,5.605c2.586,1.938,4.947,4.393,6.164,7.419
				c0.164,0.305,0.254,0.284,0.269-0.061c-0.052-0.771-0.176-1.529-0.377-2.277c-0.312-1.446-0.642-2.887-0.993-4.323
				c-0.118-0.478-0.326-1.97-0.846-2.425c0.712,3.099,1.425,6.199,2.138,9.299c0.577-0.674-0.66-4.193-0.78-4.717
				c-0.234-1.019-0.445-3.756-1.357-4.582c-3.519-3.192-7.448-5.7-11.577-8.018c-8.619-4.839-18.427-6.894-28.082-8.342
				c-9.542-1.431-19.091-1.373-28.708-0.898c-10.115,0.5-19.771,2.562-29.278,5.956c-2.78,1.047-5.467,2.295-8.06,3.744
				c-1.103,0.645-2.206,1.29-3.309,1.935c-1.772,0.818-3.491,1.734-5.156,2.749c-2.061,1.183-3.916,2.652-5.715,4.188
				c-0.18,0.153,4.496,2.627,4.384,2.57C59.557,152.194,64.162,154.642,64.288,154.276z"/>
			<path opacity="0.2803" fill="#39B54A" d="M62.866,149.904c2.269-3.855,5.438-6.587,9.174-8.997
				c5.542-3.575,11.992-5.442,18.282-7.137c7.757-2.087,15.886-2.35,23.855-2.657c14.533-0.561,29.289,1.866,42.817,7.137
				c4.635,1.806,8.842,4.519,12.794,7.489c2.423,1.818,4.723,4.196,6.161,6.881c-0.353-1.219-0.706-2.437-1.059-3.654
				c0.307,1.34,0.614,2.678,0.922,4.018c0.153,0.675,0.481,0.607,0.463-0.062c-0.045-0.715-0.121-1.426-0.226-2.134
				c-0.068-0.513-0.091-2.05-0.501-2.525c0.271,1.622,0.544,3.244,0.815,4.868c0.266-0.477-0.249-2.16-0.322-2.552
				c-0.106-0.555-0.201-1.991-0.636-2.489c-3.931-4.51-8.863-7.753-14.053-10.642c-5.665-3.155-11.914-4.959-18.158-6.523
				c-11.381-2.85-23.208-3.131-34.86-2.881c-13.209,0.283-26.172,2.982-38.075,8.717c-3.658,1.764-7.312,3.721-10.451,6.314
				c-0.809,0.691-1.572,1.428-2.293,2.21c-0.248,0.255-0.976,0.965-0.925,1.432C56.686,147.558,62.66,150.254,62.866,149.904z"/>
			<path opacity="0.2803" fill="#39B54A" d="M63.231,157.596c0.198-2.112,1.166-3.355,2.547-4.922
				c1.132-1.094,2.367-2.056,3.705-2.886c13.938-9.807,46.785-10.996,52.841-10.877c-0.106-0.005-0.212-0.011-0.318-0.017
				c2.57,0.183,5.14,0.367,7.708,0.55c-0.106-0.011-0.213-0.023-0.319-0.034c2.365,0.309,4.73,0.618,7.096,0.927
				c-0.107-0.018-0.216-0.034-0.322-0.053c2.162,0.414,4.324,0.828,6.487,1.242c-0.107-0.023-0.216-0.048-0.322-0.071
				c1.976,0.501,3.951,1.003,5.927,1.504c-0.106-0.031-0.213-0.062-0.319-0.095c1.786,0.583,3.572,1.164,5.358,1.745
				c-0.104-0.038-0.211-0.077-0.316-0.116c1.59,0.639,3.182,1.278,4.772,1.917c-0.104-0.045-0.209-0.091-0.313-0.137
				c1.415,0.686,2.828,1.37,4.243,2.056c-0.103-0.053-0.205-0.104-0.309-0.156c1.238,0.706,2.478,1.41,3.716,2.116
				c-0.1-0.059-0.2-0.118-0.302-0.176c3.816,2.555,7.241,5.186,10.089,8.811c-1.206-2.776-2.41-5.554-3.615-8.33
				c1.543,3.801,3.088,7.603,4.631,11.403c0.192,0.432,0.282,0.411,0.269-0.061c-0.117-1.064-0.31-2.115-0.577-3.153
				c-0.438-2.007-0.898-4.01-1.377-6.007c-0.05-0.206-0.488-2.988-1.067-3.396c-2.207-1.559-4.409-3.091-6.71-4.511
				c-3.954-2.438-8.139-4.201-12.468-5.851c-6.594-2.514-13.509-3.518-20.463-4.405c-9.466-1.212-18.818-1.077-28.319-0.483
				c-4.361,0.425-8.708,0.961-13.042,1.604c-3.701,0.75-7.347,1.706-10.938,2.87c-5.604,1.648-10.779,4.441-15.758,7.427
				c-1.773,0.829-3.494,1.753-5.164,2.771c-1.19,0.646-2.356,1.332-3.498,2.058c-0.867,0.531-2.003,1.688-3.047,1.866
				c0.207,0.335,0.502,0.574,0.889,0.718c1.228,0.686,2.469,1.346,3.725,1.979C58.232,155.364,63.209,157.825,63.231,157.596z"/>
			<path opacity="0.2803" fill="#39B54A" d="M63.292,155.149c0.948-3.478,3.774-5.618,6.566-7.666
				c9.881-7.249,32.179-10.443,37.951-10.915c7.19-0.589,14.395-0.135,21.57,0.336c11.074,0.729,21.929,3.794,31.925,8.501
				c5.197,2.447,9.968,6.096,13.628,10.513c-0.349-0.756-0.698-1.512-1.047-2.268c0.729,1.741,1.459,3.482,2.188,5.224
				c0.472,1.13-0.196-3.248-0.076-2.575c-0.291-1.604-0.604-3.206-0.936-4.803c-0.069-0.331-0.296-2.302-0.813-2.713
				c0.737,3.36,1.475,6.721,2.213,10.081c0.123-0.366,0.115-0.741-0.023-1.123c-0.268-1.356-0.562-2.708-0.886-4.052
				c-0.308-1.348-0.643-2.689-1.007-4.023c-0.045-0.404-0.204-0.743-0.479-1.018c-5.728-4.721-12.079-8.1-18.938-10.899
				c-8.458-3.453-17.581-4.463-26.572-5.498c-4.123-0.475-10.741-0.708-14.821-0.499c-6.891,0.354-13.655,0.976-20.501,1.831
				c-2.062,0.279-4.094,0.721-6.097,1.328c-4.945,1.097-9.611,3.005-14.256,4.965c-2.415,1.157-4.761,2.441-7.034,3.856
				c-2.319,1.359-4.714,2.523-7,3.957c-1.423,0.893-2.701,2.288-4.184,3.049c0.174,0.316,0.44,0.539,0.797,0.67
				c1.114,0.626,2.241,1.226,3.383,1.8C58.752,153.162,63.198,155.491,63.292,155.149z"/>
			<path opacity="0.2803" fill="#39B54A" d="M62.532,152.894c1.739-4.124,5.47-6.702,9.137-9.008
				c5.718-3.597,11.981-5.402,18.382-7.112c7.752-2.074,15.869-2.356,23.833-2.665c14.518-0.563,29.21,1.854,42.74,7.067
				c6.953,2.68,14.158,7.242,18.496,13.425c-0.442-1.18-0.884-2.36-1.326-3.539c0.508,1.534,1.016,3.069,1.523,4.604
				c0.692,2.09,0.337-1.042,0.282-1.393c-0.193-1.244-0.408-2.484-0.644-3.723c-0.083-0.439-0.186-1.691-0.646-2.095
				c0.517,2.589,1.033,5.177,1.551,7.765c0.512-0.757-0.428-3.36-0.57-4.014c-0.198-0.909-0.346-3.164-1.149-3.888
				c-18.089-16.311-43.786-18.61-67.08-17.754c-8.357,0.308-16.421,1.788-24.478,3.91c-2.436,0.641-7.019,2.286-9.334,3.442
				c-4.806,2.399-9.682,4.863-14.083,7.961c-1.307,0.921-2.86,2.042-3.845,3.336C55.143,149.45,62.308,153.427,62.532,152.894z"/>
			<path opacity="0.2803" fill="#39B54A" d="M64.691,157.411c0.781-4.64,5.13-7.178,8.838-9.43
				c10.72-6.511,23.776-8.292,36.01-9.233c-0.112,0.003-0.225,0.007-0.335,0.01c4.848-0.253,9.699-0.268,14.549-0.041
				c4.738,0.204,9.446,0.682,14.128,1.434c-0.113-0.022-0.228-0.044-0.341-0.065c2.163,0.418,4.327,0.838,6.489,1.257
				c-0.114-0.029-0.226-0.057-0.34-0.084c1.974,0.506,3.946,1.012,5.92,1.519c-0.112-0.036-0.223-0.071-0.335-0.107
				c1.784,0.585,3.567,1.17,5.35,1.754c-0.109-0.043-0.219-0.086-0.329-0.129c1.588,0.642,3.174,1.282,4.761,1.923
				c-0.107-0.05-0.216-0.099-0.323-0.148c1.41,0.686,2.819,1.369,4.229,2.055c-0.106-0.056-0.212-0.111-0.316-0.166
				c1.232,0.703,2.466,1.407,3.699,2.11c-0.104-0.061-0.206-0.122-0.31-0.183c4.156,2.776,8.107,5.681,10.816,9.954
				c-0.392-0.963-0.783-1.928-1.175-2.892c0.541,1.468,1.082,2.935,1.623,4.402c0.201,0.415,0.289,0.393,0.268-0.069
				c-0.139-1.037-0.352-2.062-0.639-3.068c-0.478-1.953-0.976-3.901-1.493-5.843c-0.082-0.308-0.534-2.846-1.132-3.294
				c1.071,4.189,2.143,8.379,3.214,12.568c0.098-0.459,0.061-0.919-0.109-1.375c-0.375-1.668-0.779-3.328-1.21-4.983
				c-0.417-1.656-0.859-3.308-1.331-4.95c-0.069-0.483-0.258-0.903-0.563-1.26c-4.831-3.722-10.035-6.604-15.581-9.13
				c-5.856-2.668-12.152-4.065-18.44-5.217c-8.876-1.623-17.979-1.777-26.965-1.721c-8.874,0.056-17.915,1.447-26.523,3.484
				c-6.282,1.486-12.188,4.127-17.863,7.137c-1.914,1.284-3.925,2.39-6.035,3.313c-1.409,0.789-2.819,1.575-4.231,2.356
				c-0.942,0.546-1.864,1.121-2.768,1.728c-0.487,0.317-1.088,0.879-1.685,1.018c0.241,0.355,0.572,0.613,0.991,0.771
				c1.358,0.752,2.729,1.478,4.114,2.178C59.194,154.929,64.649,157.668,64.691,157.411z"/>
		</g>
	</g>
</g>
<g>
	<g>
		<g>
			<path opacity="0.2803" fill="#39B54A" d="M218.505,102.782c-0.162,6.636-1.176,13.12-3.039,19.452
				c-1.567,6.345-4.886,12.138-8.064,17.764c-2.324,3.724-4.927,7.241-7.808,10.553c-4.222,5.259-9.588,9.502-14.814,13.686
				c-9.267,7.42-20.397,12.156-31.439,16.182c-7.081,2.58-14.571,3.807-21.968,5.032c-7.791,1.292-15.737,1.124-23.593,0.971
				c-12.97-0.252-25.628-3.659-37.789-7.87c-6.908-2.392-13.276-6.056-19.566-9.702c-6.069-3.519-11.358-8.172-16.573-12.802
				c-3.278-3.114-6.314-6.446-9.113-9.996c-4.28-5.049-7.355-10.94-10.36-16.782c-2.977-5.786-4.481-12.152-5.935-18.435
				c-1.483-6.407-1.265-13.047-1.05-19.554c0.361-10.897,4.531-21.253,9.323-30.846c2.907-5.82,7.153-10.875,11.276-15.84
				c4.284-5.157,9.625-9.338,14.849-13.47c9.262-7.328,20.302-12.056,31.285-16.086c7.041-2.584,14.486-3.836,21.844-5.09
				c7.754-1.321,15.665-1.199,23.489-1.091c12.941,0.179,25.581,3.495,37.74,7.612c6.921,2.345,13.312,5.96,19.626,9.56
				c6.097,3.477,11.426,8.092,16.68,12.686c3.307,3.093,6.376,6.406,9.208,9.938c4.334,5.03,7.468,10.909,10.532,16.742
				c3.039,5.787,4.607,12.169,6.123,18.467c1.547,6.435,1.383,13.115,1.218,19.663c-0.024,0.962,1.199-1.864,1.016-1.43
				c0.421-1.01,0.824-2.025,1.206-3.05c0.236-0.524,0.401-1.07,0.493-1.636c-0.121-2.266-0.242-4.532-0.363-6.797
				c-0.433-4.464-1.238-8.858-2.418-13.184c-1.487-6.533-4.577-12.586-7.576-18.51c-3.083-6.086-7.535-11.375-11.87-16.573
				c-6.069-7.276-13.865-12.914-21.616-18.217c-6.146-4.207-13.055-7.155-19.857-10.083c-7.15-3.078-14.809-4.757-22.367-6.432
				c-7.974-1.766-16.187-2.004-24.306-2.25c-10.855-0.327-21.617,1.703-32.14,4.071c-7.574,1.705-14.73,4.815-21.803,7.913
				c-6.856,3.003-13.03,7.297-19.124,11.571c-5.927,4.158-10.893,9.465-15.78,14.744c-6.371,6.88-10.767,15.228-14.684,23.645
				c-2.928,6.29-4.212,13.157-5.454,19.916c-0.843,4.595-0.673,9.332-0.699,13.968c-0.014,2.447,0.208,4.922,0.627,7.337
				c0.792,4.561,1.402,9.091,2.972,13.481c2.291,6.407,4.667,12.897,8.454,18.619c4.181,6.319,3.264,5.048,8.011,11.168
				c5.777,7.446,13.363,13.296,20.908,18.802c5.931,4.327,12.655,7.432,19.271,10.513c6.908,3.218,14.353,5.089,21.701,6.953
				c12.935,3.283,26.354,3.295,39.562,2.506c7.905-0.473,15.628-2.354,23.274-4.265c12.041-3.011,23.181-8.897,33.618-15.432
				c5.968-3.735,11.123-8.577,16.204-13.396c6.568-6.227,11.466-13.896,15.941-21.675c6.692-11.634,8.796-25.216,10.065-38.359
				c-0.291,0.017-0.533,0.146-0.727,0.393c-0.739,0.667-1.457,1.356-2.156,2.066C220.426,100.444,218.565,101.833,218.505,102.782z"
				/>
			<path opacity="0.2803" fill="#39B54A" d="M219.31,105.313c-0.093,6.592-1.086,13.063-2.985,19.418
				c-1.568,6.331-4.875,12.109-8.046,17.724c-2.315,3.715-4.907,7.224-7.778,10.527c-4.203,5.246-9.545,9.482-14.748,13.662
				c-9.218,7.408-20.291,12.161-31.277,16.208c-7.044,2.596-14.497,3.85-21.859,5.104c-7.758,1.321-15.674,1.197-23.501,1.086
				c-12.942-0.184-25.583-3.507-37.742-7.635c-6.92-2.347-13.308-5.968-19.62-9.573c-6.096-3.481-11.42-8.103-16.671-12.702
				c-3.305-3.098-6.371-6.415-9.2-9.953c-4.33-5.037-7.456-10.928-10.512-16.77c-3.033-5.797-4.587-12.19-6.089-18.497
				c-1.535-6.446-1.349-13.134-1.165-19.69c0.318-4.417,1.027-8.771,2.126-13.061c1.337-6.391,4.314-12.317,7.197-18.103
				c2.933-5.884,7.232-10.989,11.405-15.998c4.325-5.19,9.724-9.39,15-13.537c9.322-7.33,20.428-12.041,31.469-16.049
				c7.06-2.563,14.519-3.794,21.891-5.025c7.756-1.296,15.667-1.152,23.491-1.023c12.922,0.214,25.536,3.552,37.672,7.691
				c6.901,2.354,13.271,5.974,19.563,9.578c6.076,3.479,11.383,8.093,16.616,12.683c3.292,3.09,6.347,6.4,9.167,9.928
				c4.312,5.022,7.43,10.892,10.478,16.713c3.022,5.774,4.575,12.143,6.079,18.426c1.534,6.422,1.361,13.087,1.189,19.622
				c-0.027,1.096,1.381-2.351,1.172-1.843c0.52-1.273,1.021-2.554,1.503-3.841c0.289-0.662,0.504-1.344,0.647-2.047
				c-0.15-2.32-0.3-4.641-0.451-6.961c-0.5-4.558-1.384-9.041-2.656-13.446c-1.611-6.633-4.865-12.748-8.022-18.727
				c-3.228-6.115-7.838-11.394-12.328-16.58c-6.249-7.224-14.212-12.763-22.125-17.964c-6.242-4.103-13.233-6.94-20.11-9.75
				c-2.45-1.001-4.98-1.839-7.539-2.526c-5.089-1.365-9.989-2.822-15.229-3.548c-8.026-1.113-16.137-2.184-24.269-1.775
				c-9.231,0.463-6.904,0.275-16.024,1.309c-5.273,0.597-10.392,1.999-15.53,3.246c-9.866,2.395-19.112,6.911-27.994,11.678
				c-6.411,3.441-12.054,8.081-17.621,12.698c-7.175,5.952-12.744,13.492-17.887,21.171c-3.775,5.639-6.167,12.028-8.496,18.344
				C6.152,81.876,5.448,88.682,4.77,95.373c-0.695,6.85,0.399,13.728,1.479,20.457c1.425,8.883,5.439,17.13,9.611,24.978
				c3.203,6.025,7.752,11.23,12.183,16.35c6.179,7.136,14.031,12.624,21.835,17.784c6.17,4.079,13.069,6.909,19.863,9.723
				c9.58,3.966,19.894,5.753,30.082,7.235c8.083,1.176,16.29,0.834,24.409,0.495c7.96-0.332,15.768-2.126,23.488-3.917
				c7.438-1.726,14.464-4.81,21.411-7.881c8.909-3.94,16.782-9.781,24.312-15.854c5.459-4.401,9.914-9.853,14.295-15.27
				c5.738-7.098,9.455-15.498,12.709-23.927c0.842-2.182,1.5-4.467,1.964-6.763c1.326-6.554,2.389-12.972,3.062-19.639
				c-0.325,0.045-0.595,0.205-0.811,0.481c-0.848,0.776-1.674,1.575-2.48,2.393C221.606,102.596,219.372,104.278,219.31,105.313z"/>
			<path opacity="0.2803" fill="#39B54A" d="M218.331,101.09c-0.157,6.617-1.159,13.084-3.007,19.402
				c-1.558,6.336-4.868,12.126-8.036,17.745c-2.317,3.724-4.914,7.239-7.79,10.55c-4.221,5.265-9.589,9.51-14.818,13.697
				c-9.299,7.445-20.478,12.175-31.564,16.185c-7.127,2.578-14.662,3.776-22.103,4.979c-7.929,1.28-16.002,1.062-23.988,0.877
				c0.111,0.003,0.222,0.007,0.333,0.01c-2.776-0.238-5.554-0.478-8.331-0.717c0.113,0.013,0.226,0.023,0.337,0.034
				c-2.713-0.408-5.427-0.816-8.14-1.225c0.113,0.02,0.227,0.039,0.34,0.059c-2.644-0.572-5.286-1.144-7.93-1.714
				c0.114,0.027,0.227,0.056,0.341,0.083c-2.563-0.729-5.128-1.456-7.693-2.183c0.113,0.034,0.226,0.07,0.339,0.106
				c-2.473-0.875-4.948-1.751-7.421-2.627c0.112,0.044,0.224,0.087,0.336,0.13c-2.381-1.016-4.762-2.033-7.141-3.051
				c0.109,0.052,0.22,0.102,0.331,0.152c-2.281-1.151-4.561-2.303-6.842-3.456c0.108,0.059,0.218,0.118,0.326,0.176
				c-2.173-1.28-4.346-2.561-6.518-3.841c0.105,0.065,0.21,0.132,0.317,0.196c-2.058-1.401-4.115-2.803-6.173-4.204
				c0.103,0.071,0.205,0.145,0.307,0.217c-1.935-1.516-3.87-3.031-5.803-4.548c0.098,0.08,0.196,0.159,0.294,0.239
				c-1.803-1.624-3.608-3.247-5.412-4.872c0.093,0.087,0.187,0.173,0.281,0.26c-1.667-1.725-3.332-3.448-4.998-5.172
				c0.089,0.093,0.177,0.186,0.265,0.278c-1.52-1.817-3.041-3.634-4.561-5.451c0.082,0.099,0.165,0.198,0.246,0.297
				c-1.292-1.798-2.584-3.596-3.875-5.395c-2.418-3.64-4.539-7.446-6.361-11.42c-2.929-5.78-4.392-12.13-5.805-18.395
				C6.976,102.112,7.222,95.51,7.464,89.04c0.323-8.655,3.278-16.95,6.483-24.874c2.413-5.965,6.241-11.255,9.957-16.441
				c3.829-5.343,8.771-9.795,13.602-14.185c5.063-4.602,11.002-8.13,16.835-11.629c8.258-4.955,17.506-7.987,26.666-10.731
				c7.303-2.188,14.931-2.999,22.47-3.814c7.92-0.856,15.911-0.246,23.814,0.36c7.738,0.592,15.276,2.622,22.727,4.645
				c9.498,2.58,18.277,7.184,26.758,12.043c6.097,3.494,11.421,8.125,16.671,12.735c6.761,5.935,11.916,13.365,16.649,20.921
				c3.476,5.547,5.571,11.781,7.605,17.943c2.756,8.348,2.924,17.238,2.696,25.914c-0.021,0.854,1.057-1.488,0.898-1.123
				c0.446-1.038,1.405-2.617,1.358-3.791c-0.09-2.232-0.182-4.463-0.271-6.696c-0.368-4.407-1.102-8.751-2.201-13.035
				c-1.378-6.489-4.339-12.525-7.215-18.437c-2.969-6.098-7.312-11.424-11.541-16.66c-4.424-5.476-9.971-9.937-15.399-14.344
				c-5.708-4.631-12.285-8.062-18.752-11.466c-6.812-3.582-14.238-5.808-21.564-8.021c-7.729-2.336-15.817-3.169-23.807-4.008
				C110.908,3.19,99.822,4.472,88.962,6.1c-7.855,1.177-15.389,3.823-22.835,6.46C58.9,15.12,52.275,19.044,45.731,22.954
				c-6.369,3.805-11.852,8.847-17.251,13.864C23.2,41.724,19.113,47.695,15.107,53.62c-3.947,5.842-6.411,12.514-8.784,19.09
				c-0.828,2.294-1.463,4.685-1.881,7.091c-0.781,4.48-1.831,9.352-1.769,13.934c0.113,8.153-0.024,5.995,0.863,14.284
				c0.745,6.96,3.283,13.595,5.752,20.069c2.458,6.445,6.44,12.201,10.31,17.84c3.943,5.749,9.112,10.558,14.158,15.297
				c5.211,4.895,11.359,8.68,17.397,12.427c6.27,3.894,13.218,6.551,20.068,9.191c7.171,2.767,14.734,4.162,22.262,5.508
				c10.587,1.892,21.421,1.467,32.079,0.727c7.738-0.539,15.296-2.473,22.765-4.421c2.544-0.664,5.058-1.479,7.499-2.448
				c7.535-2.993,6.018-2.337,13.31-5.768c4.355-2.05,8.308-4.729,12.355-7.3c5.86-3.721,10.921-8.516,15.91-13.285
				c4.841-4.627,8.646-10.166,12.381-15.671c8.765-12.912,11.78-28.42,13.123-43.656c-0.256-0.008-0.472,0.096-0.645,0.313
				c-0.639,0.564-1.256,1.15-1.853,1.758C219.903,99.103,218.384,100.231,218.331,101.09z"/>
			<path opacity="0.2803" fill="#39B54A" d="M217.382,109.3c-0.017,4.496-0.48,8.942-1.39,13.345
				c-0.866,4.259-2.126,8.396-3.78,12.415c0.049-0.106,0.096-0.212,0.145-0.317c-0.95,2.048-1.897,4.096-2.846,6.143
				c0.053-0.101,0.104-0.201,0.156-0.304c-1.117,1.958-2.235,3.917-3.353,5.875c0.057-0.097,0.113-0.193,0.17-0.29
				c-2.304,3.665-4.881,7.126-7.732,10.386c-2.902,3.313-6.023,6.406-9.363,9.277c-6.729,6.211-14.863,10.697-22.92,14.888
				c-8.638,4.493-18.155,6.994-27.568,9.209c-10.115,2.382-20.596,2.525-30.917,2.389c-10.421-0.139-20.643-2.507-30.636-5.207
				c-9.49-2.563-18.264-7.15-26.74-11.992c-8.096-4.625-14.978-10.996-21.495-17.565c-6.28-6.328-10.814-14.06-14.911-21.886
				c-4.053-7.741-5.781-16.376-7.06-24.916c-1.313-8.765,0.086-17.655,1.853-26.219c1.757-8.51,6.044-16.279,10.443-23.644
				c4.551-7.617,11.08-13.87,17.581-19.777c6.897-6.267,15.193-10.788,23.42-15.005c8.782-4.503,18.442-6.98,27.997-9.163
				c10.235-2.337,20.824-2.401,31.249-2.179c10.599,0.226,20.957,2.75,31.099,5.583c-0.106-0.03-0.214-0.059-0.32-0.09
				c2.476,0.864,4.948,1.729,7.423,2.592c-0.106-0.037-0.211-0.076-0.316-0.113c2.382,1.006,4.763,2.014,7.145,3.02
				c-0.104-0.045-0.208-0.09-0.312-0.136c2.281,1.144,4.562,2.285,6.845,3.429c-0.103-0.053-0.205-0.106-0.306-0.159
				c2.173,1.272,4.347,2.545,6.521,3.817c-0.099-0.061-0.198-0.121-0.298-0.181c2.058,1.395,4.117,2.789,6.176,4.184
				c-0.096-0.068-0.192-0.134-0.288-0.202c1.936,1.51,3.871,3.02,5.807,4.531c-0.092-0.075-0.185-0.149-0.275-0.224
				c1.805,1.62,3.609,3.237,5.414,4.857c-0.087-0.082-0.174-0.162-0.263-0.244c1.665,1.718,3.33,3.437,4.995,5.154
				c-0.083-0.087-0.166-0.174-0.249-0.261c1.521,1.812,3.042,3.624,4.562,5.437c-0.078-0.094-0.155-0.187-0.233-0.281
				c2.723,3.488,5.166,7.163,7.329,11.023c2.126,3.796,3.936,7.738,5.425,11.826c1.477,4.06,2.604,8.213,3.377,12.462
				c1.449,6.407,1.2,13.035,0.955,19.534c-0.077,0.449,0.008,0.482,0.256,0.1c0.487-0.912,0.904-1.856,1.253-2.832
				c0.737-1.843,1.456-3.692,2.156-5.551c0.263-0.705,1.075-2.348,0.979-3.298c-0.239-2.35-0.48-4.7-0.72-7.049
				c-0.681-4.594-1.747-9.096-3.196-13.507c-1.862-6.597-5.327-12.627-8.691-18.529c-3.412-5.985-8.139-11.121-12.746-16.173
				c-4.763-5.223-10.539-9.379-16.244-13.473c-5.942-4.263-12.665-7.308-19.279-10.33c-6.898-3.153-14.317-4.969-21.641-6.781
				c-12.861-3.181-26.216-3.139-39.332-2.297c-7.842,0.502-15.5,2.392-23.084,4.309c-11.943,3.019-22.926,8.84-33.288,15.323
				c-5.902,3.691-11.012,8.461-16.052,13.206c-4.889,4.602-8.754,10.123-12.554,15.607c-3.744,5.405-6.21,11.53-8.619,17.595
				c-3.285,8.273-4.1,17.215-4.504,26.001c-0.31,6.734,1.106,13.405,2.5,19.935c1.396,6.548,4.403,12.635,7.323,18.594
				c3.008,6.139,7.408,11.489,11.69,16.749c4.473,5.492,10.078,9.953,15.562,14.36c5.756,4.624,12.382,8.034,18.897,11.416
				c6.851,3.556,14.314,5.742,21.675,7.918c7.757,2.292,15.861,3.077,23.866,3.867c8.292,0.819,16.646,0.053,24.9-0.71
				c7.996-0.737,15.754-2.972,23.425-5.201c7.417-2.155,14.322-5.704,21.144-9.236c6.614-3.426,12.444-8.116,18.192-12.782
				c1.951-1.585,3.801-3.328,5.507-5.181c4.784-5.188,9.677-10.494,13.18-16.684c1.145-2.022,2.289-4.046,3.435-6.068
				c2.116-4.106,3.892-8.355,5.325-12.749c1.415-4.382,2.477-8.849,3.186-13.399c0.84-4.312,1.45-8.656,1.829-13.034
				c-0.433,0.14-0.797,0.395-1.093,0.765c-1.199,1.132-2.38,2.285-3.538,3.46c-1.172,1.161-2.322,2.345-3.452,3.547
				C217.773,108.503,217.521,108.867,217.382,109.3z"/>
			<path opacity="0.2803" fill="#39B54A" d="M218.16,106.51c-0.023,4.48-0.494,8.913-1.412,13.3
				c-1.775,11.254-7.104,20.133-13.233,29.12c-6.305,9.247-15.389,16.314-24.454,22.626c-9.82,6.837-21.278,10.939-32.634,14.341
				c-7.287,2.183-14.902,2.992-22.428,3.808c-7.897,0.855-15.866,0.252-23.747-0.346c-12.689-0.964-24.901-5.015-36.576-9.812
				c-6.66-2.737-12.712-6.702-18.687-10.649c-5.78-3.815-10.707-8.721-15.562-13.602c-3.044-3.28-5.832-6.766-8.363-10.455
				c-3.921-5.293-6.551-11.362-9.115-17.373c-2.566-6.016-3.571-12.521-4.536-18.927c-0.994-6.59-0.232-13.285,0.519-19.838
				c0.698-4.322,1.765-8.551,3.203-12.687c1.871-6.248,5.3-11.918,8.619-17.462c5.744-9.589,14.333-17.185,22.993-24.025
				c9.323-7.363,20.443-12.099,31.5-16.126c7.074-2.577,14.551-3.815,21.939-5.052c7.776-1.301,15.707-1.156,23.551-1.024
				c12.959,0.217,25.607,3.579,37.771,7.745c6.916,2.37,13.297,6.013,19.601,9.639c6.086,3.5,11.396,8.138,16.63,12.753
				c3.293,3.106,6.346,6.432,9.16,9.975c4.306,5.044,7.409,10.935,10.441,16.775c3.005,5.79,4.536,12.169,6.016,18.463
				c1.511,6.423,1.313,13.085,1.117,19.614c-0.036,1.196,1.514-2.704,1.288-2.15c0.596-1.472,1.173-2.948,1.73-4.435
				c0.326-0.763,0.581-1.547,0.764-2.354c-0.179-2.318-0.357-4.637-0.535-6.955c-0.554-4.548-1.491-9.015-2.812-13.401
				c-1.1-4.309-3.18-8.572-4.967-12.613c-0.953-2.156-2.112-4.247-3.395-6.231c-2.519-3.891-4.801-7.676-7.885-11.173
				c-5.049-5.723-3.891-4.493-9.356-9.864c-3.361-3.305-7.318-6.062-11.085-8.865c-2.01-1.498-4.133-2.862-6.322-4.083
				c-4.323-2.413-8.47-4.879-13.083-6.734c-7.682-3.085-6.004-2.468-13.906-5.083c-4.912-1.626-10.064-2.496-15.121-3.499
				c-2.684-0.533-5.416-0.893-8.148-1.093c-5.467-0.401-10.723-0.93-16.22-0.648c-2.631,0.134-5.262,0.27-7.895,0.404
				c-5.317,0.438-10.588,1.202-15.812,2.293c-10.065,1.783-19.591,5.696-28.839,9.89c-6.648,3.014-12.631,7.25-18.54,11.467
				c-7.599,5.421-13.772,12.493-19.551,19.73c-4.226,5.294-7.19,11.416-10.087,17.484c-3.888,8.141-5.338,17.127-6.35,25.985
				c-0.782,6.836,0.226,13.722,1.221,20.461c1.318,8.923,5.249,17.235,9.346,25.147c3.151,6.089,7.675,11.362,12.081,16.546
				c6.149,7.239,14.014,12.819,21.833,18.065c6.186,4.152,13.12,7.041,19.949,9.911c9.635,4.049,20.027,5.886,30.291,7.412
				c8.147,1.213,16.422,0.879,24.608,0.548c10.642-0.428,21.023-3.142,31.156-6.18c7.285-2.183,14.062-5.714,20.761-9.229
				c8.601-4.515,16.004-10.896,23.037-17.492c5.106-4.79,9.098-10.58,13.012-16.327c2.584-3.792,4.383-7.983,6.331-12.107
				c4.8-10.167,6.29-21.829,7.444-32.866c-0.37,0.083-0.68,0.281-0.926,0.595c-0.989,0.92-1.96,1.863-2.909,2.825
				c-0.962,0.95-1.903,1.921-2.822,2.912C218.44,105.83,218.243,106.14,218.16,106.51z"/>
			<path opacity="0.2803" fill="#39B54A" d="M217.923,104.146c-0.12,8.785-1.845,17.319-5.171,25.605
				c-2.17,6.163-5.967,11.646-9.611,16.988c-6.345,9.295-15.49,16.386-24.619,22.713c-9.874,6.845-21.393,10.928-32.802,14.306
				c-7.314,2.165-14.952,2.95-22.501,3.74c-7.913,0.829-15.891,0.196-23.783-0.432c-12.694-1.009-24.897-5.108-36.56-9.955
				c-6.645-2.761-12.677-6.747-18.633-10.714c-5.755-3.834-10.655-8.75-15.482-13.642c-3.024-3.283-5.791-6.77-8.3-10.461
				c-3.888-5.29-6.487-11.349-9.021-17.348c-2.531-5.997-3.511-12.478-4.453-18.858c-0.969-6.56-0.195-13.222,0.567-19.741
				c0.703-4.3,1.772-8.507,3.208-12.619c1.873-6.215,5.289-11.856,8.595-17.371c5.725-9.55,14.273-17.12,22.892-23.944
				c9.289-7.352,20.367-12.093,31.384-16.131c7.054-2.586,14.511-3.837,21.88-5.089c7.759-1.319,15.676-1.195,23.507-1.084
				c12.941,0.183,25.581,3.499,37.743,7.62c6.918,2.345,13.308,5.96,19.62,9.56c6.097,3.476,11.423,8.09,16.676,12.683
				c3.307,3.093,6.375,6.407,9.207,9.939c4.334,5.031,7.466,10.914,10.528,16.749c3.04,5.79,4.604,12.177,6.115,18.48
				c1.545,6.442,1.372,13.13,1.2,19.685c-0.027,1.058,1.329-2.21,1.127-1.722c0.492-1.195,0.966-2.398,1.42-3.609
				c0.272-0.622,0.475-1.264,0.604-1.927c-0.149-2.28-0.301-4.558-0.451-6.836c-0.491-4.479-1.358-8.883-2.599-13.214
				c-2.106-8.729-6.698-16.648-11.401-24.173c-3.646-5.835-8.559-10.778-13.35-15.645c-6.711-6.817-14.976-11.898-23.183-16.655
				c-6.503-3.769-13.661-6.244-20.721-8.703c-9.975-3.477-20.567-4.696-31.018-5.611c-8.178-0.716-16.4,0.104-24.527,0.92
				c-10.417,1.046-20.448,4.313-30.215,7.885c-7.042,2.577-13.5,6.454-19.881,10.314c-8.226,4.977-15.125,11.751-21.632,18.724
				c-4.756,5.096-8.29,11.135-11.75,17.125c-4.6,7.963-6.805,16.969-8.536,25.893c-1.335,6.88-0.837,13.943-0.34,20.863
				c0.656,9.155,4.069,17.865,7.703,26.166c1.396,3.191,5.012,9.246,7.111,12.025c2.824,3.738,5.419,7.404,8.774,10.713
				c5.502,5.426,4.273,4.292,10.165,9.343c3.651,3.129,7.819,5.649,11.838,8.25c2.143,1.386,4.384,2.639,6.686,3.736
				c4.521,2.155,8.948,4.421,13.725,5.994c7.97,2.629,6.29,2.133,14.453,4.271c5.134,1.346,10.356,1.894,15.598,2.593
				c2.77,0.368,5.574,0.573,8.368,0.597c5.502,0.045,10.943,0.246,16.429-0.396c8.896-1.043,6.809-0.732,15.563-2.315
				c5.131-0.929,10.017-2.616,14.973-4.17c11.793-3.697,22.495-10.25,32.438-17.418c5.708-4.113,10.497-9.306,15.212-14.468
				c6.129-6.709,10.407-14.786,14.243-22.931c4.733-10.05,6.172-21.678,7.26-32.564c-0.33,0.049-0.604,0.212-0.822,0.492
				c-0.862,0.789-1.703,1.6-2.523,2.432C220.271,101.383,217.986,103.102,217.923,104.146z"/>
			<path opacity="0.2803" fill="#39B54A" d="M218.827,108.706c-0.122,2.251-0.245,4.503-0.367,6.753
				c-0.476,4.381-1.348,8.682-2.616,12.903c0.035-0.102,0.071-0.202,0.105-0.304c-0.754,2.132-1.507,4.263-2.26,6.395
				c0.038-0.098,0.077-0.196,0.116-0.293c-1.942,3.812-3.883,7.626-5.824,11.44c-2.292,3.677-4.857,7.15-7.694,10.423
				c-5.601,6.995-12.957,12.404-20.23,17.49c-7.777,5.44-16.707,8.994-25.544,12.26c-9.464,3.497-19.559,4.866-29.521,5.947
				c-7.914,0.859-15.897,0.252-23.795-0.349c-10.237-0.781-20.149-3.76-29.805-7.04c-9.177-3.117-17.516-8.186-25.541-13.498
				c-7.669-5.075-14.004-11.814-19.956-18.73c-4.326-5.028-7.454-10.905-10.513-16.734c-4.055-7.729-5.792-16.35-7.08-24.879
				c-1.325-8.767,0.069-17.661,1.833-26.23c1.756-8.535,6.061-16.324,10.478-23.704c4.576-7.645,11.149-13.909,17.69-19.823
				c6.938-6.274,15.285-10.782,23.558-14.986c8.818-4.48,18.508-6.926,28.092-9.077c10.328-2.319,20.99-2.344,31.502-2.106
				c-0.112-0.003-0.224-0.007-0.334-0.01c2.771,0.235,5.543,0.472,8.314,0.708c-0.112-0.011-0.225-0.022-0.336-0.033
				c2.708,0.404,5.416,0.807,8.123,1.211c-0.112-0.02-0.225-0.037-0.337-0.057c2.636,0.566,5.272,1.131,7.909,1.695
				c-0.112-0.026-0.225-0.052-0.336-0.079c2.558,0.72,5.115,1.439,7.673,2.158c-0.11-0.033-0.223-0.068-0.333-0.101
				c2.472,0.867,4.943,1.734,7.414,2.602c-0.109-0.042-0.219-0.083-0.328-0.125c2.378,1.008,4.756,2.017,7.134,3.026
				c-0.106-0.05-0.214-0.099-0.321-0.147c2.277,1.144,4.554,2.285,6.831,3.429c-0.104-0.056-0.209-0.112-0.312-0.169
				c2.169,1.271,4.337,2.541,6.506,3.812c-0.102-0.062-0.203-0.126-0.304-0.189c2.052,1.393,4.106,2.783,6.16,4.174
				c-0.099-0.069-0.195-0.14-0.293-0.209c1.931,1.504,3.86,3.009,5.791,4.514c-0.093-0.076-0.188-0.152-0.28-0.229
				c1.8,1.611,3.601,3.222,5.399,4.835c-0.088-0.083-0.177-0.165-0.266-0.248c1.664,1.711,3.326,3.423,4.99,5.134
				c-0.083-0.088-0.166-0.176-0.249-0.264c1.518,1.803,3.038,3.608,4.556,5.412c-0.077-0.094-0.153-0.187-0.23-0.28
				c1.367,1.888,2.734,3.777,4.103,5.667c-0.071-0.098-0.142-0.196-0.212-0.294c2.429,3.627,4.562,7.423,6.397,11.383
				c1.811,3.912,3.288,7.945,4.435,12.098c2.66,8.304,2.756,17.123,2.465,25.725c-0.065,0.421,0.021,0.454,0.258,0.1
				c0.459-0.844,0.85-1.719,1.174-2.626c0.687-1.712,1.354-3.43,2.001-5.155c0.275-0.735,0.972-2.143,0.892-3.071
				c-0.599-6.95-1.249-14.041-3.648-20.664c-0.784-2.16-1.565-4.321-2.35-6.481c-1.749-4.252-3.828-8.336-6.233-12.255
				c-3.405-6.076-8.178-11.273-12.829-16.384c-4.802-5.273-10.668-9.474-16.407-13.628c-5.972-4.32-12.746-7.396-19.405-10.451
				c-6.948-3.188-14.428-5.02-21.81-6.846c-7.722-1.91-15.715-2.361-23.615-2.821c-8.133-0.472-16.262,0.57-24.3,1.614
				c-4.122,0.534-11.287,2.151-15.268,3.451c-7.132,2.329-14.331,4.692-20.939,8.327c-2.044,1.125-4.09,2.25-6.134,3.375
				c-4.103,2.425-8.031,5.106-11.783,8.043c-5.578,4.082-10.263,9.202-14.878,14.291c-4.483,4.945-7.838,10.746-11.127,16.502
				c-4.353,7.618-6.529,16.183-8.272,24.688C5.16,96.3,5.502,103.068,5.844,109.714c0.343,6.636,2.357,13.055,4.322,19.336
				c1.989,6.357,5.488,12.133,8.886,17.794c3.521,5.864,8.315,10.861,12.993,15.783c4.896,5.151,10.81,9.225,16.609,13.255
				c6.094,4.234,12.956,7.224,19.711,10.193c7.113,3.125,14.741,4.859,22.271,6.588c7.956,1.826,16.162,2.125,24.274,2.431
				c8.195,0.309,16.354-0.916,24.42-2.142c7.787-1.183,15.256-3.809,22.639-6.428c7.155-2.538,13.725-6.414,20.212-10.274
				c6.303-3.75,11.748-8.711,17.112-13.646c5.235-4.813,9.325-10.669,13.339-16.478c1.372-1.986,2.597-4.105,3.639-6.287
				c3.413-7.154,2.562-5.158,5.428-12.697c1.449-4.371,2.535-8.831,3.261-13.378c0.852-4.309,1.456-8.653,1.813-13.029
				c-0.399,0.108-0.731,0.331-0.998,0.67c-1.083,1.015-2.145,2.05-3.186,3.105c-1.053,1.045-2.085,2.109-3.096,3.194
				C219.156,107.974,218.934,108.308,218.827,108.706z"/>
		</g>
	</g>
</g>
<g>
	<g>
		<g>
			<path opacity="0.2803" fill="#39B54A" d="M63.335,57.782c-0.103,6.933-0.281,13.88-0.155,20.814
				c0.005,0.287,1.916-1.918,1.521-1.445c0.77-0.926,1.522-1.864,2.26-2.815c0.417-0.476,0.771-0.994,1.062-1.553
				c0.079-0.487,0.058-0.908,0.061-1.427c0.013-2.619,0.015-5.233,0.098-7.851c0.117-3.691,0.298-7.375,0.502-11.062
				c-0.291,0.017-0.533,0.146-0.727,0.393c-0.739,0.667-1.458,1.356-2.158,2.066C65.303,55.399,63.349,56.872,63.335,57.782z"/>
			<path opacity="0.2803" fill="#39B54A" d="M64.141,60.314c-0.075,6.938-0.277,13.896-0.12,20.833
				c0.005,0.269,2.144-2.197,1.712-1.679c0.882-1.06,1.747-2.134,2.597-3.221c0.475-0.545,0.887-1.134,1.237-1.763
				c0.097-0.514,0.082-0.872,0.086-1.448c0.014-2.615,0.02-5.227,0.112-7.841c0.13-3.687,0.324-7.366,0.54-11.05
				c-0.325,0.045-0.595,0.205-0.811,0.481c-0.847,0.776-1.673,1.575-2.48,2.393C66.491,57.543,64.152,59.324,64.141,60.314z"/>
			<path opacity="0.2803" fill="#39B54A" d="M63.164,56.089c-0.075,6.914-0.224,13.834-0.129,20.748
				c0.006,0.303,1.688-1.642,1.332-1.217c0.66-0.793,1.304-1.599,1.933-2.418c0.36-0.408,0.657-0.857,0.891-1.346
				c0.058-0.466,0.032-0.942,0.033-1.412c0.008-2.622,0.011-5.242,0.082-7.862c0.099-3.688,0.258-7.37,0.435-11.055
				c-0.256-0.008-0.472,0.096-0.645,0.313c-0.638,0.564-1.255,1.15-1.853,1.758C64.775,54.064,63.172,55.262,63.164,56.089z"/>
			<path opacity="0.2803" fill="#39B54A" d="M62.213,64.3c-0.026,6.971-0.284,13.984-0.033,20.95c0.419-0.185,0.76-0.475,1.02-0.875
				c1.093-1.254,2.165-2.527,3.214-3.819c1.096-1.337,3.261-3.295,3.776-5.071c0.202-0.693,0.07-2.01,0.076-2.663
				c0.015-2.113,0.037-4.219,0.127-6.332c0.159-3.691,0.399-7.369,0.665-11.055c-0.433,0.14-0.797,0.395-1.093,0.764
				c-1.2,1.132-2.379,2.285-3.54,3.46c-1.171,1.161-2.321,2.345-3.45,3.547C62.606,63.503,62.351,63.867,62.213,64.3z"/>
			<path opacity="0.2803" fill="#39B54A" d="M62.992,61.51c-0.036,6.948-0.256,13.921-0.068,20.868
				c0.007,0.242,2.448-2.557,1.972-1.985c1.031-1.239,2.047-2.49,3.045-3.754c0.552-0.637,1.044-1.316,1.471-2.04
				c0.218-0.957,0.124-1.99,0.129-2.965c0.014-2.116,0.033-4.226,0.116-6.34c0.144-3.686,0.354-7.362,0.587-11.042
				c-0.371,0.083-0.68,0.281-0.926,0.595c-0.991,0.92-1.96,1.863-2.911,2.825c-0.96,0.951-1.901,1.921-2.821,2.912
				C63.273,60.83,63.075,61.14,62.992,61.51z"/>
			<path opacity="0.2803" fill="#39B54A" d="M62.755,59.147c-0.072,6.94-0.277,13.899-0.118,20.838
				c0.007,0.266,2.176-2.229,1.74-1.707c0.897-1.077,1.777-2.166,2.642-3.269c0.482-0.554,0.903-1.15,1.26-1.788
				c0.101-0.517,0.087-0.868,0.09-1.451c0.015-2.615,0.02-5.225,0.114-7.84c0.133-3.687,0.328-7.365,0.545-11.048
				c-0.329,0.049-0.604,0.212-0.823,0.492c-0.861,0.789-1.701,1.6-2.523,2.432C65.157,56.329,62.765,58.15,62.755,59.147z"/>
			<path opacity="0.2803" fill="#39B54A" d="M63.659,63.706c-0.029,6.955-0.278,13.949-0.046,20.901
				c0.007,0.227,2.643-2.788,2.139-2.183c1.126-1.354,2.239-2.72,3.334-4.1c0.602-0.696,1.143-1.436,1.622-2.219
				c0.248-0.959,0.143-2,0.149-2.983c0.015-2.116,0.036-4.223,0.122-6.338c0.152-3.688,0.376-7.367,0.626-11.05
				c-0.399,0.108-0.731,0.331-1,0.669c-1.081,1.015-2.143,2.05-3.184,3.106c-1.053,1.045-2.086,2.109-3.098,3.195
				C63.987,62.974,63.766,63.308,63.659,63.706z"/>
		</g>
	</g>
</g>
<g>
	<g>
		<g>
			<path opacity="0.2057" fill="#39B54A" d="M106.345,61.87c-0.075,18.908,0.044,37.819-0.097,56.727
				c2.872-3.536,5.744-7.071,8.615-10.607c-4.981,0.044-9.964,0.087-14.946,0.132c0.935,0.144,1.869,0.287,2.803,0.432
				c-2.859-0.639-5.777-1.168-8.581-2.033c0.84,0.455,1.679,0.91,2.518,1.367c-0.652-0.4-1.305-0.799-1.957-1.198
				c-0.379-0.341-0.8-0.468-1.263-0.384c-0.36,0.507,2.59,2.462,2.314,2.259c1.486,1.101,2.995,2.172,4.524,3.213
				c0.389,0.264,2.076,1.68,2.895,1.44c2.45-0.716,4.904-1.359,7.388-1.953c-3.586-0.889-7.172-1.777-10.759-2.665
				c1.772,1.649,3.543,3.299,5.315,4.95c0.572,1.638,0.951,3.32,1.134,5.048c0.091,0.541,3.363-3.314,2.695-2.522
				c1.363-1.62,2.698-3.265,4.004-4.931c0.739-0.833,1.366-1.74,1.881-2.721c0.208-1.853,0.35-3.552,0.335-5.422
				c-0.053-7.009,0.018-14.017,0.023-21.026c0.004-6.378-0.299-12.767,0.115-19.135c0.229-3.514,0.422-7.03,0.62-10.545
				c-0.519,0.032-0.952,0.267-1.298,0.707c-1.323,1.199-2.612,2.433-3.863,3.707c-1.273,1.251-2.509,2.539-3.707,3.862
				C106.612,60.916,106.377,61.349,106.345,61.87z"/>
			<path opacity="0.2057" fill="#39B54A" d="M107.726,58.232c-0.228,18.749,0.161,37.515-0.228,56.26
				c2.183-2.589,4.367-5.177,6.549-7.766c-6.238-0.813-13.614-1.151-19.651-3.895c-0.476-0.134-0.57,0-0.282,0.402
				c0.746,0.791,1.579,1.479,2.501,2.065c1.677,1.223,3.377,2.412,5.096,3.574c0.292,0.194,2.404,1.919,3.224,1.646
				c1.574-0.524,3.16-0.992,4.756-1.449c-0.13,0.036-0.26,0.072-0.391,0.108c0.713-0.18,1.427-0.36,2.14-0.54
				c-3.688-1.061-7.375-2.119-11.063-3.179c1.723,0.887,3.238,2.058,4.54,3.511c1.37,1.539,1.957,3.996,2.602,5.887
				c0.187,0.55,2.594-2.4,2.139-1.861c1.039-1.237,2.051-2.497,3.034-3.78c0.573-0.638,1.033-1.346,1.377-2.122
				c0.267-2.597,0.261-5.126,0.244-7.74c-0.043-6.087,0.033-12.174,0.039-18.262c0.005-6.388-0.266-12.785,0.076-19.166
				c0.189-3.519,0.353-7.037,0.519-10.557c0.062-1.316-2.33,1.267-2.274,1.215c-1.147,1.093-2.269,2.211-3.364,3.358
				C108.797,56.481,107.737,57.348,107.726,58.232z"/>
			<path opacity="0.2057" fill="#39B54A" d="M110.701,63.652c-0.164,18.757,0.156,37.528-0.161,56.281
				c2.325-2.893,4.651-5.786,6.978-8.68c-3.607,0.646-7.229,0.587-10.87-0.173c1.332,0.211,2.662,0.42,3.993,0.63
				c-3.179-0.687-6.349-1.404-9.513-2.155c-0.933-0.152-1.834-0.406-2.701-0.767c-0.833-0.492-1.186-0.044-0.521,0.655
				c0.724,0.688,1.482,1.338,2.275,1.95c0.508,0.402,2.144,2.026,2.987,2.011c1.075-0.018,2.151-0.07,3.224-0.108
				c1.964-0.066,3.814,0.188,5.646-0.577c-2.001-0.358-4.004-0.715-6.005-1.073c3.826,2.784,4.044,4.587,4.505,8.682
				c0.062,0.557,2.968-2.857,2.361-2.137c1.169-1.396,2.31-2.815,3.421-4.258c0.64-0.72,1.166-1.51,1.579-2.371
				c0.406-3.775,0.271-7.517,0.244-11.314c-0.076-10.321,0.02-20.647-0.035-30.969c-0.004,0.131-0.007,0.261-0.011,0.393
				c0.272-4.741,0.53-9.481,0.776-14.222c-0.459-0.014-0.843,0.174-1.152,0.564c-1.14,1.018-2.243,2.071-3.31,3.163
				c-1.088,1.071-2.138,2.179-3.151,3.321C110.872,62.809,110.686,63.194,110.701,63.652z"/>
			<path opacity="0.2057" fill="#39B54A" d="M111.077,60.909c-0.249,18.748,0.158,37.515-0.249,56.258
				c1.967-2.464,3.935-4.927,5.901-7.391c-4,0.392-7.922-0.209-11.769-1.801c-2.157-0.581-4.348-1.055-6.474-1.74
				c0.634,0.349,1.269,0.699,1.903,1.048c-0.512-0.326-1.026-0.653-1.539-0.979c-0.987-0.627-1.308-0.106-0.507,0.665
				c0.894,0.794,1.821,1.547,2.782,2.261c0.473,0.359,2.727,2.474,3.587,2.378c2.333-0.258,4.67-0.451,7.011-0.626
				c-2.537-0.865-5.073-1.729-7.608-2.594c1.82,1.593,3.64,3.187,5.461,4.779c0.601,1.4,1.027,2.853,1.279,4.357
				c0.13,0.564,2.539-2.344,2.058-1.774c0.994-1.185,1.958-2.394,2.895-3.625c0.55-0.612,0.984-1.293,1.304-2.042
				c0.263-2.594,0.258-5.125,0.239-7.736c-0.043-6.088,0.033-12.175,0.039-18.262c0.005-6.391-0.263-12.789,0.069-19.171
				c0.184-3.521,0.345-7.041,0.508-10.562c0.061-1.294-2.248,1.192-2.194,1.141c-1.095,1.045-2.164,2.116-3.207,3.214
				C112.047,59.256,111.088,60.038,111.077,60.909z"/>
			<path opacity="0.2057" fill="#39B54A" d="M104.95,57.579c-0.17,17.88-0.158,35.761-0.13,53.642
				c2.324-2.8,4.647-5.602,6.972-8.401c-4.208,0.819-8.417,1.641-12.625,2.461c3.471,0.493,6.942,0.984,10.413,1.478
				c-3.763-0.874-7.528-1.747-11.292-2.62c1.866,0.491,3.733,0.982,5.599,1.474c-4.407-0.966-8.683-2.331-12.828-4.097
				c-0.545-0.185-0.64-0.052-0.284,0.401c0.901,0.906,1.888,1.709,2.963,2.409c1.975,1.444,3.973,2.857,5.991,4.24
				c0.133,0.09,2.917,2.337,3.738,2.03c2.416-0.901,4.862-1.695,7.321-2.475c-4.597-1.22-9.193-2.44-13.789-3.66
				c2.743,1.196,4.757,3.055,6.042,5.575c0.659,1.37,1.237,2.773,1.736,4.211c0.206,0.541,2.77-2.605,2.288-2.036
				c1.128-1.339,2.227-2.699,3.297-4.083c0.619-0.689,1.123-1.451,1.515-2.282c0.4-3.77,0.261-7.511,0.234-11.302
				c-0.075-10.323,0.022-20.649-0.038-30.972c-0.001,0.127-0.003,0.256-0.004,0.383c0.264-4.739,0.509-9.478,0.75-14.219
				c-0.443-0.025-0.816,0.151-1.12,0.526c-1.098,0.969-2.161,1.977-3.188,3.021c-1.048,1.024-2.06,2.083-3.033,3.178
				C105.102,56.762,104.926,57.134,104.95,57.579z"/>
			<path opacity="0.2057" fill="#39B54A" d="M106.548,65.165c-0.057,18.94,0.01,37.879-0.062,56.817
				c3.272-4.006,6.544-8.013,9.816-12.02c-1.662,0.505-3.324,1.011-4.986,1.516c0.722-0.153,1.445-0.306,2.166-0.46
				c-3.333,0.146-6.666,0.29-10,0.434c1.826,0.112,3.651,0.226,5.477,0.338c-3.913-0.379-7.796-0.939-11.653-1.682
				c-0.645-0.128-1.29-0.255-1.935-0.379c-0.324-0.288-0.675-0.374-1.055-0.26c-0.36,0.486,1.891,2.026,1.762,1.926
				c1.169,0.911,2.363,1.792,3.577,2.644c0.542,0.379,1.549,1.287,2.357,1.12c1.058-0.219,2.109-0.46,3.166-0.684
				c1.614-0.335,3.23-0.651,4.851-0.948c0.483-0.254,0.892-0.605,1.224-1.058c-2.834-0.136-5.67-0.271-8.505-0.408
				c1.79,0.83,2.846,2.181,3.166,4.053c0.436,1.931,0.627,3.888,0.574,5.868c0.569-0.136,1.021-0.468,1.354-0.995
				c1.36-1.526,2.682-3.087,3.964-4.68c1.305-1.575,2.569-3.182,3.794-4.82c0.448-0.431,0.684-0.94,0.704-1.524
				c0.316-2.607,0.311-5.124,0.29-7.757c-0.048-6.087,0.041-12.176,0.045-18.263c0.003-6.375-0.309-12.762,0.126-19.125
				c0.241-3.526,0.466-7.055,0.692-10.582c-0.577,0.078-1.058,0.361-1.439,0.85c-1.498,1.376-2.96,2.791-4.388,4.241
				c-1.449,1.43-2.859,2.896-4.232,4.397C106.907,64.107,106.625,64.588,106.548,65.165z"/>
			<path opacity="0.2057" fill="#39B54A" d="M103.303,62.323c-0.058,18.943,0.001,37.887-0.06,56.83
				c3.337-4.067,6.673-8.137,10.01-12.205c-5.486,0.306-10.975,0.612-16.462,0.918c2.181,0.319,4.361,0.64,6.541,0.96
				c-4.275-0.577-8.454-1.55-12.539-2.922c-0.5-0.141-0.592-0.005-0.275,0.407c0.806,0.812,1.698,1.52,2.677,2.123
				c1.789,1.259,3.599,2.484,5.43,3.681c0.189,0.123,2.628,2.025,3.408,1.704c2.531-1.043,5.07-2.053,7.642-2.994
				c-4.429-0.929-8.858-1.857-13.288-2.786c1.896,1.906,3.792,3.812,5.688,5.718c0.606,1.751,0.997,3.55,1.169,5.396
				c0.576-0.143,1.034-0.48,1.372-1.015c1.387-1.55,2.733-3.135,4.042-4.753c1.332-1.599,2.622-3.23,3.872-4.893
				c0.457-0.437,0.699-0.951,0.725-1.545c0.318-2.607,0.313-5.122,0.292-7.756c-0.047-6.086,0.042-12.175,0.044-18.262
				c0.004-6.374-0.309-12.76,0.128-19.123c0.244-3.525,0.469-7.051,0.696-10.577c-0.585,0.083-1.071,0.372-1.46,0.866
				c-1.525,1.398-3.015,2.833-4.469,4.306c-1.476,1.452-2.912,2.94-4.313,4.462C103.676,61.252,103.386,61.738,103.303,62.323z"/>
			<path opacity="0.2057" fill="#39B54A" d="M110.305,57.395c-0.125,8.729-0.199,17.452-0.183,26.183
				c0.021,10.111,0.187,20.246-0.068,30.354c1.728-2.051,3.455-4.099,5.182-6.148c-3.206,0.139-6.854-1.618-9.482-2.456
				c-2.821-0.899-5.715-1.561-8.413-2.807c-0.422-0.106-0.519,0.025-0.291,0.396c0.607,0.718,1.307,1.336,2.097,1.856
				c1.421,1.09,2.864,2.148,4.328,3.178c0.496,0.347,1.918,1.599,2.789,1.425c1.962-0.392,3.945-0.616,5.932-0.852
				c-2.998-1.117-5.997-2.232-8.995-3.35c1.161,0.727,2.264,1.534,3.307,2.42c2.01,1.593,2.804,4.363,3.605,6.658
				c0.191,0.547,2.1-1.817,1.763-1.418c0.824-0.98,1.617-1.982,2.382-3.008c0.461-0.51,0.807-1.083,1.037-1.721
				c0.241-2.587,0.232-5.12,0.216-7.721c-0.04-6.087,0.031-12.174,0.038-18.262c0.007-6.399-0.244-12.804,0.042-19.197
				c0.156-3.523,0.302-7.045,0.448-10.568c0.05-1.188-1.928,0.871-1.9,0.843c-0.906,0.855-1.787,1.736-2.642,2.643
				C110.991,56.283,110.596,56.801,110.305,57.395z"/>
			<path opacity="0.2057" fill="#39B54A" d="M108.701,60.626c-0.186,18.752,0.158,37.519-0.184,56.268
				c2.375-2.822,4.75-5.643,7.126-8.464c-3.717-0.054-7.435-0.109-11.151-0.163c2.278,0.359,4.558,0.72,6.837,1.079
				c-4.474-0.99-10.786-1.941-15.448-3.825c-0.405-0.093-0.502,0.039-0.291,0.397c0.57,0.685,1.23,1.271,1.983,1.762
				c1.347,1.029,2.717,2.027,4.108,2.998c0.471,0.325,1.833,1.517,2.661,1.32c2.286-0.547,4.589-0.972,6.905-1.387
				c-3.137-0.914-6.271-1.829-9.408-2.743c1.792,1.627,3.586,3.255,5.378,4.883c0.592,1.463,1.027,2.973,1.302,4.527
				c0.13,0.56,2.842-2.699,2.296-2.053c1.132-1.348,2.235-2.72,3.311-4.113c0.62-0.693,1.126-1.459,1.52-2.296
				c0.4-3.77,0.263-7.511,0.235-11.303c-0.076-10.321,0.02-20.648-0.036-30.971c-0.001,0.129-0.002,0.257-0.004,0.385
				c0.269-4.735,0.518-9.471,0.76-14.208c-0.445-0.022-0.821,0.155-1.124,0.533c-1.103,0.979-2.17,1.993-3.201,3.046
				c-1.052,1.031-2.066,2.1-3.044,3.203C108.855,59.806,108.677,60.181,108.701,60.626z"/>
			<path opacity="0.2057" fill="#39B54A" d="M103.311,59.778c-0.069,17.896-0.086,35.792-0.069,53.688
				c3.02-3.464,6.039-6.929,9.059-10.393c-5.463,0.844-10.925,1.687-16.388,2.531c3.467,0.66,6.934,1.32,10.403,1.98
				c-5.454-1.417-10.905-2.836-16.357-4.253c-0.545-0.172-0.638-0.036-0.277,0.406c0.909,0.884,1.905,1.663,2.984,2.338
				c1.987,1.396,3.996,2.76,6.025,4.095c0.082,0.054,2.973,2.286,3.75,1.943c2.54-1.124,5.107-2.172,7.691-3.193
				c-4.775-0.945-9.549-1.891-14.323-2.836c2.809,1.145,4.766,3.021,5.87,5.63c0.659,1.561,1.174,3.166,1.544,4.818
				c0.148,0.54,3.373-3.316,2.732-2.56c1.385-1.643,2.742-3.308,4.07-4.996c0.75-0.845,1.389-1.764,1.916-2.756
				c0.311-2.759,0.342-5.412,0.319-8.191c-0.045-6.086,0.041-12.175,0.044-18.262c0.004-6.379-0.299-12.768,0.112-19.138
				c0.227-3.517,0.423-7.036,0.625-10.555c-0.526,0.036-0.965,0.275-1.315,0.721c-1.344,1.213-2.653,2.466-3.925,3.755
				c-1.293,1.269-2.549,2.573-3.769,3.913C103.589,58.813,103.347,59.252,103.311,59.778z"/>
		</g>
	</g>
</g>
<g>
	<g>
		<g>
			<path opacity="0.2803" fill="#39B54A" d="M159.335,57.782c-0.103,6.933-0.28,13.88-0.154,20.814
				c0.005,0.287,1.915-1.918,1.521-1.445c0.77-0.926,1.522-1.864,2.261-2.815c0.416-0.476,0.771-0.994,1.062-1.553
				c0.079-0.487,0.058-0.908,0.061-1.427c0.012-2.619,0.016-5.233,0.099-7.851c0.116-3.691,0.298-7.375,0.502-11.062
				c-0.29,0.017-0.532,0.146-0.727,0.393c-0.739,0.667-1.457,1.356-2.157,2.066C161.304,55.399,159.35,56.872,159.335,57.782z"/>
			<path opacity="0.2803" fill="#39B54A" d="M160.141,60.314c-0.074,6.938-0.276,13.896-0.12,20.833
				c0.006,0.269,2.144-2.197,1.712-1.679c0.882-1.06,1.747-2.134,2.597-3.221c0.475-0.545,0.888-1.134,1.236-1.763
				c0.098-0.514,0.083-0.872,0.087-1.448c0.014-2.615,0.02-5.227,0.112-7.841c0.13-3.687,0.323-7.366,0.54-11.05
				c-0.325,0.045-0.597,0.205-0.812,0.481c-0.847,0.776-1.673,1.575-2.48,2.393C162.491,57.543,160.152,59.324,160.141,60.314z"/>
			<path opacity="0.2803" fill="#39B54A" d="M159.162,56.089c-0.073,6.914-0.223,13.834-0.127,20.748
				c0.004,0.303,1.688-1.642,1.331-1.217c0.66-0.793,1.304-1.599,1.933-2.418c0.359-0.408,0.657-0.857,0.892-1.346
				c0.058-0.466,0.031-0.942,0.033-1.412c0.008-2.622,0.011-5.242,0.081-7.862c0.099-3.688,0.258-7.37,0.435-11.055
				c-0.256-0.008-0.472,0.096-0.645,0.313c-0.639,0.564-1.256,1.15-1.854,1.758C160.774,54.064,159.172,55.262,159.162,56.089z"/>
			<path opacity="0.2803" fill="#39B54A" d="M158.213,64.3c-0.026,6.971-0.284,13.984-0.033,20.95
				c0.419-0.185,0.76-0.475,1.02-0.875c1.094-1.254,2.165-2.527,3.215-3.819c1.096-1.337,3.261-3.295,3.775-5.071
				c0.2-0.693,0.07-2.01,0.076-2.663c0.016-2.113,0.037-4.219,0.127-6.332c0.159-3.691,0.398-7.369,0.665-11.055
				c-0.434,0.14-0.798,0.395-1.094,0.764c-1.2,1.132-2.379,2.285-3.539,3.46c-1.171,1.161-2.321,2.345-3.451,3.547
				C158.605,63.503,158.352,63.867,158.213,64.3z"/>
			<path opacity="0.2803" fill="#39B54A" d="M158.992,61.51c-0.036,6.948-0.258,13.921-0.068,20.868
				c0.008,0.242,2.449-2.557,1.973-1.985c1.031-1.239,2.046-2.49,3.045-3.754c0.553-0.637,1.042-1.316,1.472-2.04
				c0.217-0.957,0.123-1.99,0.129-2.965c0.014-2.116,0.033-4.226,0.116-6.34c0.144-3.686,0.354-7.362,0.585-11.042
				c-0.369,0.083-0.678,0.281-0.925,0.595c-0.99,0.92-1.959,1.863-2.91,2.825c-0.961,0.951-1.902,1.921-2.822,2.912
				C159.273,60.83,159.075,61.14,158.992,61.51z"/>
			<path opacity="0.2803" fill="#39B54A" d="M158.756,59.147c-0.072,6.94-0.277,13.899-0.118,20.838
				c0.007,0.266,2.176-2.229,1.74-1.707c0.896-1.077,1.776-2.166,2.641-3.269c0.483-0.554,0.903-1.15,1.261-1.788
				c0.102-0.517,0.087-0.868,0.09-1.451c0.016-2.615,0.02-5.225,0.113-7.84c0.132-3.687,0.328-7.365,0.546-11.048
				c-0.329,0.049-0.605,0.212-0.823,0.492c-0.861,0.789-1.701,1.6-2.523,2.432C161.157,56.329,158.765,58.15,158.756,59.147z"/>
			<path opacity="0.2803" fill="#39B54A" d="M159.659,63.706c-0.029,6.955-0.278,13.949-0.046,20.901
				c0.007,0.227,2.643-2.788,2.139-2.183c1.127-1.354,2.239-2.72,3.334-4.1c0.603-0.696,1.144-1.436,1.621-2.219
				c0.249-0.959,0.144-2,0.151-2.983c0.015-2.116,0.035-4.223,0.121-6.338c0.151-3.688,0.375-7.367,0.626-11.05
				c-0.398,0.108-0.73,0.331-0.999,0.669c-1.081,1.015-2.143,2.05-3.184,3.106c-1.054,1.045-2.086,2.109-3.098,3.195
				C159.987,62.974,159.766,63.308,159.659,63.706z"/>
		</g>
	</g>
</g>
</svg>
